# xmcd
#
# Track frame offsets:
#	150
#	19267
#	43842
#	70429
#	88892
#	110792
#	131079
#	151429
#	172917
#	191179
#	207004
#
# Disc length: 3056 seconds
#
# Revision: 1
# Processed by: cddbd v1.5.2PL0 Copyright (c) Steve Scherf et al.
# Submitted via: audiograbber 1.83.01
#
DISCID=a30bee0b
DTITLE=Pat Mears - There Goes The Rainbow
DYEAR=1991
DGENRE=Blues Rock
TTITLE0=The River Road
TTITLE1=There Goes The Rainbow
TTITLE2=Just Experience
TTITLE3=I Try And Try
TTITLE4=Look For You
TTITLE5=Can You Spare It, Baby
TTITLE6=A Bird In Hand
TTITLE7=Someone Is Cryin' For You
TTITLE8=Making Up For Lost Time
TTITLE9=When The Time Is Right
TTITLE10=Baby's Blues
EXTD=
EXTT0=
EXTT1=
EXTT2=
EXTT3=
EXTT4=
EXTT5=
EXTT6=
EXTT7=
EXTT8=
EXTT9=
EXTT10=
PLAYORDER=
